<?xml version="1.0" encoding="iso-8859-1"?>
<!-- Generator: Adobe Illustrator 25.2.0, SVG Export Plug-In . SVG Version: 6.00 Build 0)  -->
<svg version="1.1" id="Layer_1" xmlns="http://www.w3.org/2000/svg" xmlns:xlink="http://www.w3.org/1999/xlink" x="0px" y="0px"
	 viewBox="0 0 1000 1000" style="enable-background:new 0 0 1000 1000;" xml:space="preserve">
<g id="watermark_1_">
	<g>
		<g id="watermark" style="opacity:0.61;">
			<g>
				<g>
					<g>
						<g>
							<polygon style="fill:#606060;" points="421.112,924.528 409.007,952.493 402.615,952.493 390.55,924.528 397.541,924.528 
								406.051,944.503 414.68,924.528 							"/>
						</g>
						<g>
							<path style="fill:#606060;" d="M442.323,943.185h-16.26c0.599,2.677,2.876,4.315,6.153,4.315
								c2.277,0,3.915-0.679,5.393-2.077l3.316,3.595c-1.997,2.278-4.994,3.476-8.868,3.476c-7.431,0-12.265-4.674-12.265-11.067
								c0-6.432,4.914-11.066,11.466-11.066c6.312,0,11.186,4.235,11.186,11.146C442.443,941.987,442.363,942.666,442.323,943.185
								 M425.983,939.55h10.587c-0.44-2.717-2.478-4.475-5.274-4.475C428.46,935.075,426.422,936.793,425.983,939.55"/>
						</g>
						<g>
							<path style="fill:#606060;" d="M444.997,941.427c0-6.471,4.994-11.066,11.985-11.066c4.514,0,8.07,1.958,9.628,5.473
								l-4.834,2.597c-1.159-2.038-2.877-2.956-4.834-2.956c-3.156,0-5.633,2.198-5.633,5.952c0,3.756,2.477,5.953,5.633,5.953
								c1.958,0,3.675-0.879,4.834-2.956l4.834,2.637c-1.558,3.436-5.114,5.433-9.628,5.433
								C449.991,952.493,444.997,947.899,444.997,941.427"/>
						</g>
						<g>
							<path style="fill:#606060;" d="M484.386,951.135c-1.279,0.919-3.157,1.358-5.074,1.358c-5.073,0-8.03-2.597-8.03-7.711
								v-8.829h-3.316v-4.794h3.316v-5.233h6.232v5.233h5.353v4.794h-5.353v8.749c0,1.837,0.998,2.836,2.677,2.836
								c0.918,0,1.837-0.279,2.517-0.799L484.386,951.135z"/>
						</g>
					</g>
					<g>
						<path style="fill:#606060;" d="M527.157,930.68v5.753c-0.519-0.04-0.918-0.08-1.398-0.08c-3.435,0-5.713,1.877-5.713,5.993
							v10.147h-6.232V931h5.953v2.836C521.284,931.759,523.841,930.68,527.157,930.68"/>
					</g>
					<g>
						<path style="fill:#606060;" d="M528.954,949.257l2.197-4.874c2.357,1.718,5.873,2.916,9.229,2.916
							c3.836,0,5.393-1.278,5.393-2.996c0-5.233-16.26-1.638-16.26-12.025c0-4.754,3.835-8.709,11.785-8.709
							c3.516,0,7.112,0.839,9.708,2.477l-1.998,4.914c-2.597-1.478-5.273-2.197-7.75-2.197c-3.835,0-5.313,1.438-5.313,3.196
							c0,5.154,16.259,1.598,16.259,11.865c0,4.675-3.875,8.67-11.865,8.67C535.905,952.493,531.43,951.175,528.954,949.257"/>
					</g>
					<g>
						<path style="fill:#606060;" d="M577.131,943.185h-16.26c0.599,2.677,2.876,4.315,6.153,4.315c2.277,0,3.915-0.679,5.393-2.077
							l3.316,3.595c-1.998,2.278-4.994,3.476-8.869,3.476c-7.431,0-12.265-4.674-12.265-11.067c0-6.432,4.914-11.066,11.466-11.066
							c6.312,0,11.187,4.235,11.187,11.146C577.251,941.987,577.171,942.666,577.131,943.185 M560.791,939.55h10.587
							c-0.439-2.717-2.477-4.475-5.273-4.475C563.268,935.075,561.231,936.793,560.791,939.55"/>
					</g>
					<g>
						<path style="fill:#606060;" d="M602.337,943.185h-16.26c0.599,2.677,2.876,4.315,6.152,4.315c2.277,0,3.915-0.679,5.393-2.077
							l3.316,3.595c-1.998,2.278-4.994,3.476-8.869,3.476c-7.431,0-12.265-4.674-12.265-11.067c0-6.432,4.914-11.066,11.466-11.066
							c6.312,0,11.186,4.235,11.186,11.146C602.457,941.987,602.377,942.666,602.337,943.185 M585.997,939.55h10.587
							c-0.439-2.717-2.477-4.475-5.273-4.475C588.474,935.075,586.437,936.793,585.997,939.55"/>
					</g>
					<g>
						<polygon style="fill:#606060;" points="615.838,944.064 612.841,947.02 612.841,952.493 606.61,952.493 606.61,922.85 
							612.841,922.85 612.841,939.629 621.95,931 629.381,931 620.432,940.108 630.18,952.493 622.63,952.493 						"/>
					</g>
					<g>
						<path style="fill:#606060;" d="M514.371,955.416L514.371,955.416l-6.226-6.226c-0.947,1.107-2.075,2.054-3.339,2.796
							c-0.201,0.15-0.406,0.296-0.616,0.433l6.589,6.589c0.992,0.992,2.601,0.992,3.592,0
							C515.363,958.017,515.363,956.408,514.371,955.416"/>
					</g>
					<g>
						<path style="fill:#F84D10;" d="M499.965,929.04c0.48-0.377,1.077-0.612,1.735-0.612c0.091,0,0.181,0.005,0.27,0.013
							c-0.466-0.34-1.041-0.542-1.663-0.542c-0.859,0-1.619,0.392-2.137,0.998c-0.111,0-0.218,0.013-0.328,0.016
							c0.086-0.167,0.139-0.354,0.139-0.555c0-0.509-0.311-0.945-0.752-1.13c0.19,0.275,0.301,0.608,0.301,0.968
							c0,0.267-0.066,0.517-0.176,0.742c-6.119,0.437-10.95,5.527-10.95,11.757c0,6.516,5.283,11.799,11.799,11.799
							c6.517,0,11.8-5.283,11.8-11.799C510.004,934.777,505.644,929.892,499.965,929.04 M495.61,932.114
							c0.947,0,1.837,0.244,2.611,0.674c0.813-0.532,1.785-0.842,2.828-0.842c1.547,0,2.934,0.68,3.883,1.756
							c-0.948-0.826-2.186-1.328-3.541-1.328c-0.977,0-1.895,0.261-2.686,0.716c-0.172,0.1-0.34,0.208-0.499,0.326
							c-0.142-0.104-0.29-0.203-0.444-0.292c-0.803-0.476-1.741-0.749-2.743-0.749c-0.653,0-1.279,0.117-1.86,0.331
							C493.895,932.328,494.727,932.114,495.61,932.114 M503.858,941.785c0.25,0.664,0.394,1.38,0.394,2.131
							c0,3.34-2.707,6.047-6.047,6.047c-3.339,0-6.047-2.707-6.047-6.047c0-0.751,0.143-1.467,0.394-2.131
							c-1.35-0.831-2.253-2.317-2.253-4.019c0-2.607,2.114-4.72,4.72-4.72c1.23,0,2.346,0.474,3.186,1.244
							c0.84-0.77,1.956-1.244,3.186-1.244c2.607,0,4.72,2.113,4.72,4.72C506.111,939.467,505.208,940.954,503.858,941.785"/>
					</g>
					<g>
						<path style="fill:#444444;" d="M503.627,937.351c0,1.082-0.879,1.961-1.961,1.961c-1.082,0-1.961-0.879-1.961-1.961
							s0.879-1.961,1.961-1.961c0.22,0,0.428,0.037,0.625,0.102c-0.065,0.135-0.099,0.287-0.099,0.445
							c0,0.595,0.482,1.076,1.077,1.076c0.11,0,0.217-0.017,0.318-0.048C503.613,937.089,503.627,937.218,503.627,937.351"/>
					</g>
					<g>
						<path style="fill:#444444;" d="M496.201,937.351c0,0.818-0.665,1.482-1.483,1.482c-0.818,0-1.483-0.664-1.483-1.482
							s0.665-1.483,1.483-1.483c0.166,0,0.324,0.027,0.473,0.077c-0.049,0.102-0.075,0.217-0.075,0.337
							c0,0.449,0.364,0.814,0.814,0.814c0.083,0,0.164-0.013,0.241-0.036C496.191,937.153,496.201,937.251,496.201,937.351"/>
					</g>
					<g>
						<g>
							<g>
								<rect x="484.56" y="939.024" style="fill:#606060;" width="1.34" height="1.34"/>
							</g>
							<g>
								<rect x="510.51" y="939.024" style="fill:#606060;" width="1.34" height="1.34"/>
							</g>
							<g>
								<path style="fill:#606060;" d="M511.332,939.572h-0.304c0-7.07-5.752-12.823-12.823-12.823
									c-7.07,0-12.823,5.753-12.823,12.823h-0.305c0-3.506,1.365-6.803,3.845-9.282c2.479-2.48,5.776-3.845,9.282-3.845
									c3.507,0,6.803,1.365,9.283,3.845C509.966,932.769,511.332,936.065,511.332,939.572"/>
							</g>
						</g>
						<g>
							<rect x="497.534" y="925.927" style="fill:#606060;" width="1.34" height="1.34"/>
						</g>
						<g>
							<rect x="489.006" y="926.445" style="fill:#606060;" width="18.397" height="0.304"/>
						</g>
						<g>
							<path style="fill:#606060;" d="M489.494,926.658c0,0.235-0.191,0.427-0.427,0.427c-0.235,0-0.426-0.191-0.426-0.427
								s0.191-0.427,0.426-0.427C489.303,926.231,489.494,926.422,489.494,926.658"/>
						</g>
						<g>
							<path style="fill:#606060;" d="M507.829,926.658c0,0.235-0.191,0.427-0.427,0.427c-0.235,0-0.426-0.191-0.426-0.427
								s0.191-0.427,0.426-0.427C507.639,926.231,507.829,926.422,507.829,926.658"/>
						</g>
					</g>
				</g>
				<g>
					<path style="fill:#606060;" d="M640.109,951.171c0,3.395-5.146,3.395-5.146,0C634.963,947.779,640.109,947.779,640.109,951.171
						z"/>
				</g>
				<g>
					<g>
						<g>
							<path style="fill:#606060;" d="M307.849,936.236l3.859,13.253l4.038-13.253h4.823l-6.145,17.721h-5.073l-1.822-5.216
								l-1.572-5.896l-1.571,5.896l-1.822,5.216h-5.073l-6.18-17.721h4.858l4.038,13.253l3.822-13.253H307.849z"/>
						</g>
						<g>
							<path style="fill:#606060;" d="M340.449,936.236l3.859,13.253l4.038-13.253h4.823l-6.145,17.721h-5.073l-1.822-5.216
								l-1.571-5.896l-1.572,5.896l-1.822,5.216h-5.073l-6.18-17.721h4.858l4.038,13.253l3.822-13.253H340.449z"/>
						</g>
						<g>
							<path style="fill:#606060;" d="M373.048,936.236l3.859,13.253l4.038-13.253h4.823l-6.145,17.721h-5.073l-1.822-5.216
								l-1.572-5.896l-1.571,5.896l-1.822,5.216h-5.073l-6.18-17.721h4.858l4.038,13.253l3.822-13.253H373.048z"/>
						</g>
					</g>
					<g>
						<path style="fill:#606060;" d="M393.123,951.412c0,3.395-5.146,3.395-5.146,0C387.977,948.02,393.123,948.02,393.123,951.412z
							"/>
					</g>
					<g>
						<path style="fill:#606060;" d="M658.296,951.171c-2.036,2.001-4.177,2.787-6.787,2.787c-5.108,0-9.361-3.072-9.361-9.323
							c0-6.251,4.253-9.326,9.361-9.326c2.502,0,4.43,0.716,6.359,2.609l-2.752,2.894c-1.036-0.931-2.321-1.393-3.534-1.393
							c-2.929,0-5.073,2.144-5.073,5.216c0,3.357,2.286,5.143,5,5.143c1.393,0,2.787-0.393,3.857-1.463L658.296,951.171z"/>
					</g>
					<g>
						<path style="fill:#606060;" d="M678.097,944.777c0,5.073-3.465,9.181-9.181,9.181c-5.716,0-9.146-4.107-9.146-9.181
							c0-5.038,3.502-9.181,9.111-9.181S678.097,939.739,678.097,944.777z M664.128,944.777c0,2.679,1.609,5.181,4.788,5.181
							c3.179,0,4.788-2.502,4.788-5.181c0-2.644-1.859-5.216-4.788-5.216C665.772,939.561,664.128,942.133,664.128,944.777z"/>
					</g>
					<g>
						<path style="fill:#606060;" d="M692.828,953.958v-9.431c0-2.324-1.216-4.43-3.61-4.43c-2.356,0-3.75,2.106-3.75,4.43v9.431
							h-4.36v-17.649h4.038l0.323,2.144c0.928-1.786,2.964-2.429,4.643-2.429c2.109,0,4.218,0.858,5.216,3.287
							c1.574-2.502,3.61-3.217,5.896-3.217c5,0,7.467,3.075,7.467,8.36v9.504h-4.361v-9.504c0-2.321-0.963-4.288-3.322-4.288
							c-2.356,0-3.822,2.036-3.822,4.36v9.431H692.828z"/>
					</g>
				</g>
			</g>
		</g>
		<g style="opacity:0.61;">
			<g>
				<g>
					<path style="fill:#606060;" d="M708.973,859.493c-0.013-2.665-2.087-4.618-4.766-4.659c-2.011-0.031-1.81,0.261-1.815-1.887
						c-0.006-2.389-0.015-4.778,0.006-7.166c0.007-0.824-0.243-1.505-0.787-2.125c-5.098-5.81-10.184-11.63-15.281-17.441
						c-0.262-0.299-0.599-0.532-0.901-0.796c-13.528,0-27.055,0-40.583,0c-1.729,0.639-2.482,1.889-2.478,3.72
						c0.021,8.159,0.009,16.318,0.008,24.478c0,1.21-0.007,1.281-1.197,1.201c-3.258-0.221-5.477,2.147-5.436,5.426
						c0.096,7.568,0.028,15.137,0.031,22.706c0.001,3.44,1.887,5.32,5.333,5.331c1.267,0.004,1.268,0.004,1.268,1.306
						c0.001,4.831-0.002,9.662,0.002,14.493c0.002,2.595,1.262,3.855,3.85,3.855c17.446,0.001,34.891,0.001,52.337,0
						c2.543,0,3.822-1.268,3.824-3.799c0.005-4.912,0.001-9.823,0.003-14.735c0-1.115,0.005-1.112,1.131-1.121
						c0.589-0.005,1.177,0.017,1.761-0.127c2.169-0.535,3.68-2.273,3.689-4.503C709.007,875.597,709.011,867.545,708.973,859.493z
						 M647.034,828.716c11.619-0.001,23.237-0.001,34.856,0c1.193,0,1.206,0.015,1.207,1.222c0.001,4.884-0.002,9.767,0.002,14.651
						c0.001,1.765,0.543,2.305,2.307,2.306c4.159,0.003,8.318,0,12.477,0.003c0.997,0.001,1.044,0.046,1.046,1.052
						c0.006,1.932,0.005,3.864,0,5.796c-0.003,1.038-0.051,1.085-1.098,1.085c-8.479,0.002-16.958,0.001-25.438,0.001
						c-8.452,0-16.905,0-25.357,0c-1.198,0-1.202-0.003-1.202-1.221c-0.001-7.889-0.001-15.778,0-23.667
						C645.835,828.724,645.844,828.716,647.034,828.716z M697.728,903.645c-8.454,0.001-16.908,0.001-25.362,0.001
						c-8.427,0-16.854,0.001-25.281,0c-1.245,0-1.249-0.003-1.249-1.262c-0.001-4.348-0.003-8.696,0.001-13.043
						c0.001-1.01,0.051-1.059,1.041-1.059c16.989-0.002,33.977-0.002,50.966,0c1.041,0,1.086,0.044,1.087,1.094
						c0.003,4.348,0.003,8.696,0.001,13.043C698.931,903.634,698.92,903.645,697.728,903.645z"/>
				</g>
				<g>
					<g>
						<rect x="668.546" y="828.478" style="fill:#606060;" width="3.825" height="2.295"/>
					</g>
					<g>
						<rect x="664.722" y="830.773" style="fill:#606060;" width="3.825" height="2.295"/>
					</g>
					<g>
						<rect x="668.546" y="833.068" style="fill:#606060;" width="3.825" height="2.295"/>
					</g>
					<g>
						<rect x="664.722" y="835.363" style="fill:#606060;" width="3.825" height="2.295"/>
					</g>
					<g>
						<rect x="668.546" y="837.658" style="fill:#606060;" width="3.825" height="2.295"/>
					</g>
					<g>
						<rect x="664.722" y="839.953" style="fill:#606060;" width="3.825" height="2.295"/>
					</g>
					<g>
						<rect x="668.546" y="842.247" style="fill:#606060;" width="3.825" height="2.295"/>
					</g>
					<g>
						<rect x="664.722" y="844.542" style="fill:#606060;" width="3.825" height="2.295"/>
					</g>
					<g>
						<rect x="668.546" y="846.837" style="fill:#606060;" width="3.825" height="2.295"/>
					</g>
					<g>
						<rect x="664.722" y="849.132" style="fill:#606060;" width="3.825" height="2.295"/>
					</g>
					<g>
						<rect x="668.546" y="851.427" style="fill:#606060;" width="3.825" height="2.295"/>
					</g>
					<g>
						<rect x="664.722" y="853.722" style="fill:#606060;" width="3.825" height="2.295"/>
					</g>
				</g>
			</g>
			<g>
				<path style="fill:#606060;" d="M364.231,859.493c-0.013-2.665-2.087-4.618-4.766-4.659c-2.011-0.031-1.81,0.261-1.815-1.887
					c-0.006-2.389-0.015-4.778,0.006-7.166c0.007-0.824-0.243-1.505-0.787-2.125c-5.098-5.81-10.184-11.63-15.281-17.441
					c-0.262-0.299-0.599-0.532-0.901-0.796c-13.528,0-27.055,0-40.583,0c-1.729,0.639-2.482,1.889-2.478,3.72
					c0.021,8.159,0.009,16.318,0.008,24.478c0,1.21-0.007,1.281-1.197,1.201c-3.258-0.221-5.477,2.147-5.436,5.426
					c0.096,7.568,0.028,15.137,0.031,22.706c0.001,3.44,1.887,5.32,5.333,5.331c1.267,0.004,1.268,0.004,1.268,1.306
					c0.001,4.831-0.002,9.662,0.002,14.493c0.002,2.595,1.262,3.855,3.85,3.855c17.446,0.001,34.891,0.001,52.337,0
					c2.543,0,3.822-1.268,3.824-3.799c0.005-4.912,0.001-9.823,0.003-14.735c0-1.115,0.004-1.112,1.131-1.121
					c0.589-0.005,1.177,0.017,1.761-0.127c2.169-0.535,3.68-2.273,3.689-4.503C364.264,875.597,364.269,867.545,364.231,859.493z
					 M302.292,828.716c11.619-0.001,23.237-0.001,34.856,0c1.192,0,1.206,0.015,1.207,1.222c0.001,4.884-0.001,9.767,0.002,14.651
					c0.001,1.765,0.543,2.305,2.307,2.306c4.159,0.003,8.318,0,12.477,0.003c0.997,0.001,1.044,0.046,1.046,1.052
					c0.006,1.932,0.005,3.864,0,5.796c-0.003,1.038-0.051,1.085-1.098,1.085c-8.479,0.002-16.958,0.001-25.438,0.001
					c-8.452,0-16.905,0-25.357,0c-1.198,0-1.202-0.003-1.202-1.221c-0.001-7.889-0.001-15.778,0-23.667
					C301.093,828.724,301.102,828.716,302.292,828.716z M352.985,903.645c-8.454,0.001-16.908,0.001-25.362,0.001
					c-8.427,0-16.854,0.001-25.281,0c-1.245,0-1.249-0.003-1.249-1.262c-0.001-4.348-0.003-8.696,0.001-13.043
					c0.001-1.01,0.051-1.059,1.041-1.059c16.989-0.002,33.977-0.002,50.966,0c1.041,0,1.086,0.044,1.087,1.094
					c0.003,4.348,0.003,8.696,0.001,13.043C354.188,903.634,354.177,903.645,352.985,903.645z"/>
			</g>
			<g>
				<path style="fill:#FFFFFF;" d="M303.581,879.891v-17.193h6.051c0.816,0,1.581,0.132,2.293,0.396
					c0.712,0.264,1.333,0.636,1.861,1.117c0.527,0.48,0.944,1.053,1.248,1.717c0.304,0.665,0.456,1.397,0.456,2.198
					c0,0.816-0.152,1.557-0.456,2.221s-0.721,1.236-1.248,1.717c-0.529,0.48-1.149,0.852-1.861,1.117
					c-0.713,0.264-1.477,0.396-2.293,0.396h-2.809v6.315H303.581z M309.68,870.503c0.848,0,1.489-0.241,1.921-0.721
					c0.432-0.48,0.648-1.032,0.648-1.656c0-0.304-0.052-0.601-0.156-0.889c-0.105-0.288-0.264-0.54-0.48-0.756
					c-0.216-0.217-0.484-0.388-0.805-0.516c-0.32-0.129-0.696-0.193-1.128-0.193h-2.857v4.731H309.68z"/>
				<path style="fill:#FFFFFF;" d="M317.796,862.699h3.77l6.916,11.526h0.191l-0.191-3.314v-8.212h3.217v17.193h-3.409l-7.3-12.174
					h-0.191l0.191,3.314v8.86h-3.193V862.699z"/>
				<path style="fill:#FFFFFF;" d="M343.08,870.454h8.429c0.048,0.193,0.087,0.425,0.12,0.697c0.031,0.272,0.048,0.544,0.048,0.816
					c0,1.104-0.167,2.145-0.504,3.121c-0.336,0.977-0.865,1.849-1.585,2.618c-0.768,0.817-1.69,1.449-2.761,1.897
					c-1.073,0.448-2.298,0.672-3.674,0.672c-1.249,0-2.426-0.224-3.53-0.672c-1.104-0.447-2.065-1.072-2.881-1.873
					c-0.816-0.8-1.465-1.749-1.945-2.845c-0.48-1.097-0.72-2.293-0.72-3.59c0-1.296,0.24-2.493,0.72-3.589s1.129-2.045,1.945-2.845
					c0.816-0.8,1.777-1.425,2.881-1.873c1.104-0.448,2.281-0.672,3.53-0.672c1.392,0,2.637,0.24,3.734,0.72
					c1.097,0.48,2.036,1.144,2.821,1.993l-2.232,2.185c-0.562-0.592-1.185-1.044-1.874-1.357s-1.513-0.468-2.473-0.468
					c-0.786,0-1.53,0.14-2.234,0.421c-0.705,0.28-1.321,0.676-1.85,1.188c-0.527,0.512-0.949,1.133-1.259,1.861
					c-0.312,0.728-0.469,1.541-0.469,2.437c0,0.897,0.157,1.709,0.469,2.438c0.311,0.728,0.735,1.349,1.271,1.861
					c0.536,0.512,1.156,0.909,1.862,1.188c0.704,0.281,1.457,0.421,2.258,0.421c0.911,0,1.684-0.132,2.317-0.396
					c0.632-0.264,1.171-0.604,1.62-1.021c0.321-0.288,0.598-0.652,0.829-1.092s0.412-0.932,0.541-1.477h-5.404V870.454z"/>
			</g>
			<g>
				<path style="fill:#606060;" d="M443.437,859.493c-0.013-2.665-2.087-4.618-4.766-4.659c-2.011-0.031-1.81,0.261-1.815-1.887
					c-0.006-2.389-0.015-4.778,0.006-7.166c0.007-0.824-0.243-1.505-0.787-2.125c-5.098-5.81-10.184-11.63-15.281-17.441
					c-0.262-0.299-0.599-0.532-0.901-0.796c-13.528,0-27.055,0-40.583,0c-1.729,0.639-2.482,1.889-2.478,3.72
					c0.021,8.159,0.009,16.318,0.008,24.478c0,1.21-0.007,1.281-1.197,1.201c-3.258-0.221-5.477,2.147-5.436,5.426
					c0.096,7.568,0.028,15.137,0.031,22.706c0.001,3.44,1.887,5.32,5.333,5.331c1.267,0.004,1.268,0.004,1.268,1.306
					c0.001,4.831-0.002,9.662,0.002,14.493c0.002,2.595,1.262,3.855,3.85,3.855c17.446,0.001,34.891,0.001,52.337,0
					c2.543,0,3.822-1.268,3.824-3.799c0.005-4.912,0.001-9.823,0.003-14.735c0-1.115,0.004-1.112,1.131-1.121
					c0.589-0.005,1.177,0.017,1.761-0.127c2.169-0.535,3.68-2.273,3.689-4.503C443.47,875.597,443.475,867.545,443.437,859.493z
					 M381.498,828.716c11.619-0.001,23.237-0.001,34.856,0c1.192,0,1.206,0.015,1.207,1.222c0.001,4.884-0.001,9.767,0.002,14.651
					c0.001,1.765,0.543,2.305,2.307,2.306c4.159,0.003,8.318,0,12.477,0.003c0.997,0.001,1.044,0.046,1.046,1.052
					c0.006,1.932,0.005,3.864,0,5.796c-0.003,1.038-0.051,1.085-1.098,1.085c-8.479,0.002-16.958,0.001-25.438,0.001
					c-8.452,0-16.905,0-25.357,0c-1.198,0-1.202-0.003-1.202-1.221c-0.001-7.889-0.001-15.778,0-23.667
					C380.299,828.724,380.308,828.716,381.498,828.716z M432.192,903.645c-8.454,0.001-16.908,0.001-25.362,0.001
					c-8.427,0-16.854,0.001-25.281,0c-1.245,0-1.249-0.003-1.249-1.262c-0.001-4.348-0.002-8.696,0.001-13.043
					c0.001-1.01,0.051-1.059,1.041-1.059c16.989-0.002,33.977-0.002,50.966,0c1.041,0,1.086,0.044,1.087,1.094
					c0.003,4.348,0.003,8.696,0.001,13.043C433.394,903.634,433.384,903.645,432.192,903.645z"/>
			</g>
			<g>
				<path style="fill:#FFFFFF;" d="M402.272,862.699h3.698l6.46,17.193h-3.578l-1.416-4.106h-6.628l-1.417,4.106h-3.578
					L402.272,862.699z M406.379,872.808l-1.537-4.298l-0.625-2.089h-0.192l-0.625,2.089l-1.537,4.298H406.379z"/>
				<path style="fill:#FFFFFF;" d="M415.815,866.541c-0.273,0-0.533-0.052-0.781-0.156c-0.248-0.104-0.465-0.248-0.648-0.432
					c-0.184-0.184-0.328-0.396-0.432-0.636c-0.105-0.241-0.156-0.504-0.156-0.793s0.052-0.552,0.156-0.793
					c0.104-0.24,0.248-0.452,0.432-0.636c0.184-0.184,0.4-0.328,0.648-0.432c0.248-0.104,0.508-0.156,0.781-0.156
					c0.56,0,1.041,0.196,1.441,0.588c0.4,0.393,0.601,0.869,0.601,1.429c0,0.56-0.201,1.037-0.601,1.428
					C416.856,866.345,416.375,866.541,415.815,866.541z M414.255,879.891v-11.766h3.145v11.766H414.255z"/>
			</g>
			<g>
				<path style="fill:#606060;" d="M524.043,859.493c-0.013-2.665-2.087-4.618-4.766-4.659c-2.011-0.031-1.81,0.261-1.815-1.887
					c-0.006-2.389-0.015-4.778,0.006-7.166c0.007-0.824-0.243-1.505-0.787-2.125c-5.098-5.81-10.184-11.63-15.281-17.441
					c-0.262-0.299-0.599-0.532-0.901-0.796c-13.528,0-27.055,0-40.583,0c-1.729,0.639-2.482,1.889-2.478,3.72
					c0.021,8.159,0.009,16.318,0.008,24.478c0,1.21-0.007,1.281-1.197,1.201c-3.258-0.221-5.477,2.147-5.436,5.426
					c0.096,7.568,0.028,15.137,0.031,22.706c0.001,3.44,1.887,5.32,5.333,5.331c1.267,0.004,1.268,0.004,1.268,1.306
					c0.001,4.831-0.002,9.662,0.002,14.493c0.002,2.595,1.262,3.855,3.85,3.855c17.446,0.001,34.891,0.001,52.337,0
					c2.543,0,3.822-1.268,3.824-3.799c0.005-4.912,0.001-9.823,0.003-14.735c0-1.115,0.004-1.112,1.131-1.121
					c0.589-0.005,1.177,0.017,1.761-0.127c2.169-0.535,3.68-2.273,3.689-4.503C524.076,875.597,524.081,867.545,524.043,859.493z
					 M462.104,828.716c11.619-0.001,23.237-0.001,34.856,0c1.192,0,1.206,0.015,1.207,1.222c0.001,4.884-0.001,9.767,0.002,14.651
					c0.001,1.765,0.543,2.305,2.307,2.306c4.159,0.003,8.318,0,12.477,0.003c0.997,0.001,1.044,0.046,1.046,1.052
					c0.006,1.932,0.005,3.864,0,5.796c-0.003,1.038-0.051,1.085-1.098,1.085c-8.479,0.002-16.958,0.001-25.438,0.001
					c-8.452,0-16.905,0-25.357,0c-1.198,0-1.202-0.003-1.202-1.221c-0.001-7.889-0.001-15.778,0-23.667
					C460.905,828.724,460.914,828.716,462.104,828.716z M512.798,903.645c-8.454,0.001-16.908,0.001-25.362,0.001
					c-8.427,0-16.854,0.001-25.281,0c-1.245,0-1.249-0.003-1.249-1.262c-0.001-4.348-0.002-8.696,0.001-13.043
					c0.001-1.01,0.051-1.059,1.041-1.059c16.989-0.002,33.977-0.002,50.966,0c1.041,0,1.086,0.044,1.087,1.094
					c0.003,4.348,0.003,8.696,0.001,13.043C514,903.634,513.989,903.645,512.798,903.645z"/>
			</g>
			<g>
				<path style="fill:#FFFFFF;" d="M470.308,880.275c-0.737,0-1.441-0.104-2.113-0.312c-0.672-0.208-1.289-0.52-1.849-0.936
					c-0.56-0.416-1.048-0.925-1.464-1.525c-0.417-0.601-0.745-1.301-0.985-2.101l3.049-1.2c0.224,0.864,0.616,1.581,1.177,2.149
					s1.297,0.852,2.209,0.852c0.336,0,0.66-0.044,0.973-0.132c0.312-0.087,0.592-0.216,0.84-0.384
					c0.248-0.168,0.444-0.38,0.589-0.636c0.144-0.256,0.216-0.552,0.216-0.888c0-0.32-0.056-0.608-0.168-0.865
					c-0.112-0.255-0.3-0.495-0.564-0.72c-0.264-0.224-0.609-0.44-1.033-0.648c-0.424-0.208-0.948-0.424-1.572-0.648l-1.056-0.384
					c-0.465-0.16-0.933-0.376-1.405-0.648c-0.472-0.272-0.9-0.6-1.284-0.985c-0.385-0.384-0.701-0.836-0.949-1.357
					c-0.249-0.52-0.372-1.108-0.372-1.765c0-0.672,0.132-1.301,0.396-1.885c0.264-0.584,0.64-1.096,1.129-1.537
					c0.488-0.44,1.072-0.784,1.753-1.032c0.681-0.248,1.437-0.372,2.269-0.372c0.864,0,1.612,0.116,2.245,0.348
					c0.633,0.232,1.168,0.528,1.609,0.888c0.44,0.36,0.796,0.757,1.068,1.188c0.272,0.433,0.472,0.84,0.601,1.225l-2.857,1.2
					c-0.161-0.48-0.453-0.913-0.876-1.297c-0.425-0.384-1.005-0.576-1.741-0.576c-0.704,0-1.289,0.164-1.753,0.492
					c-0.465,0.329-0.697,0.757-0.697,1.285c0,0.512,0.224,0.949,0.672,1.309c0.448,0.36,1.161,0.708,2.137,1.044l1.081,0.36
					c0.688,0.241,1.316,0.517,1.885,0.828c0.568,0.312,1.056,0.684,1.465,1.117c0.408,0.433,0.72,0.925,0.936,1.477
					c0.217,0.552,0.324,1.189,0.324,1.909c0,0.897-0.18,1.669-0.54,2.317c-0.36,0.648-0.82,1.181-1.38,1.597
					c-0.561,0.416-1.193,0.728-1.897,0.936C471.668,880.172,470.98,880.275,470.308,880.275z"/>
				<path style="fill:#FFFFFF;" d="M477.175,862.699h3.506l3.554,10.349l0.625,2.209h0.192l0.672-2.209l3.698-10.349h3.506
					l-6.268,17.193h-3.409L477.175,862.699z"/>
				<path style="fill:#FFFFFF;" d="M502.388,870.454h8.428c0.048,0.193,0.088,0.425,0.12,0.697c0.033,0.272,0.049,0.544,0.049,0.816
					c0,1.104-0.169,2.145-0.505,3.121c-0.336,0.977-0.864,1.849-1.585,2.618c-0.768,0.817-1.688,1.449-2.761,1.897
					c-1.073,0.448-2.298,0.672-3.674,0.672c-1.249,0-2.425-0.224-3.529-0.672c-1.105-0.447-2.066-1.072-2.882-1.873
					c-0.816-0.8-1.465-1.749-1.945-2.845c-0.48-1.097-0.72-2.293-0.72-3.59c0-1.296,0.241-2.493,0.72-3.589
					c0.48-1.097,1.129-2.045,1.945-2.845c0.816-0.8,1.777-1.425,2.882-1.873c1.104-0.448,2.28-0.672,3.529-0.672
					c1.392,0,2.637,0.24,3.734,0.72c1.097,0.48,2.038,1.144,2.822,1.993l-2.234,2.185c-0.56-0.592-1.185-1.044-1.874-1.357
					c-0.687-0.312-1.512-0.468-2.473-0.468c-0.784,0-1.528,0.14-2.234,0.421c-0.704,0.28-1.321,0.676-1.848,1.188
					c-0.528,0.512-0.949,1.133-1.261,1.861c-0.312,0.728-0.468,1.541-0.468,2.437c0,0.897,0.156,1.709,0.468,2.438
					c0.312,0.728,0.737,1.349,1.273,1.861c0.536,0.512,1.156,0.909,1.86,1.188c0.705,0.281,1.457,0.421,2.258,0.421
					c0.913,0,1.685-0.132,2.317-0.396c0.632-0.264,1.173-0.604,1.621-1.021c0.32-0.288,0.596-0.652,0.828-1.092
					c0.233-0.44,0.412-0.932,0.541-1.477h-5.402V870.454z"/>
			</g>
			<g>
				<path style="fill:#606060;" d="M602.976,859.493c-0.013-2.665-2.087-4.618-4.766-4.659c-2.011-0.031-1.81,0.261-1.815-1.887
					c-0.006-2.389-0.015-4.778,0.006-7.166c0.007-0.824-0.243-1.505-0.787-2.125c-5.098-5.81-10.184-11.63-15.281-17.441
					c-0.262-0.299-0.599-0.532-0.901-0.796c-13.528,0-27.055,0-40.583,0c-1.729,0.639-2.482,1.889-2.478,3.72
					c0.021,8.159,0.009,16.318,0.008,24.478c0,1.21-0.007,1.281-1.197,1.201c-3.258-0.221-5.477,2.147-5.436,5.426
					c0.096,7.568,0.028,15.137,0.031,22.706c0.001,3.44,1.887,5.32,5.333,5.331c1.267,0.004,1.268,0.004,1.268,1.306
					c0.001,4.831-0.002,9.662,0.002,14.493c0.002,2.595,1.262,3.855,3.85,3.855c17.446,0.001,34.891,0.001,52.337,0
					c2.543,0,3.822-1.268,3.824-3.799c0.005-4.912,0.001-9.823,0.003-14.735c0-1.115,0.005-1.112,1.131-1.121
					c0.589-0.005,1.178,0.017,1.761-0.127c2.169-0.535,3.68-2.273,3.689-4.503C603.01,875.597,603.015,867.545,602.976,859.493z
					 M541.037,828.716c11.619-0.001,23.237-0.001,34.856,0c1.193,0,1.206,0.015,1.207,1.222c0.001,4.884-0.002,9.767,0.002,14.651
					c0.001,1.765,0.543,2.305,2.307,2.306c4.159,0.003,8.318,0,12.477,0.003c0.997,0.001,1.044,0.046,1.046,1.052
					c0.006,1.932,0.005,3.864,0,5.796c-0.003,1.038-0.051,1.085-1.098,1.085c-8.479,0.002-16.958,0.001-25.438,0.001
					c-8.452,0-16.905,0-25.357,0c-1.198,0-1.202-0.003-1.202-1.221c-0.001-7.889-0.001-15.778,0-23.667
					C539.838,828.724,539.847,828.716,541.037,828.716z M591.731,903.645c-8.454,0.001-16.908,0.001-25.362,0.001
					c-8.427,0-16.854,0.001-25.281,0c-1.245,0-1.249-0.003-1.249-1.262c-0.001-4.348-0.003-8.696,0.001-13.043
					c0.001-1.01,0.051-1.059,1.041-1.059c16.989-0.002,33.977-0.002,50.966,0c1.041,0,1.086,0.044,1.087,1.094
					c0.003,4.348,0.003,8.696,0.001,13.043C592.934,903.634,592.923,903.645,591.731,903.645z"/>
			</g>
			<g>
				<path style="fill:#FFFFFF;" d="M549.998,865.772v3.986h6.891v3.074h-6.891v3.986h7.659v3.073h-10.901v-17.193h10.901v3.073
					H549.998z"/>
				<path style="fill:#FFFFFF;" d="M560.635,879.891v-17.193h6.051c0.816,0,1.581,0.132,2.293,0.396
					c0.712,0.264,1.333,0.636,1.861,1.117c0.528,0.48,0.944,1.053,1.249,1.717c0.304,0.665,0.456,1.397,0.456,2.198
					c0,0.816-0.152,1.557-0.456,2.221c-0.305,0.664-0.721,1.236-1.249,1.717c-0.528,0.48-1.149,0.852-1.861,1.117
					c-0.713,0.264-1.477,0.396-2.293,0.396h-2.809v6.315H560.635z M566.735,870.503c0.848,0,1.489-0.241,1.921-0.721
					c0.432-0.48,0.648-1.032,0.648-1.656c0-0.304-0.052-0.601-0.156-0.889c-0.105-0.288-0.264-0.54-0.48-0.756
					c-0.216-0.217-0.484-0.388-0.805-0.516c-0.32-0.129-0.696-0.193-1.128-0.193h-2.857v4.731H566.735z"/>
				<path style="fill:#FFFFFF;" d="M580.109,880.275c-0.737,0-1.441-0.104-2.113-0.312c-0.672-0.208-1.289-0.52-1.849-0.936
					c-0.56-0.416-1.049-0.925-1.465-1.525c-0.416-0.601-0.744-1.301-0.985-2.101l3.049-1.2c0.224,0.864,0.616,1.581,1.177,2.149
					c0.56,0.568,1.296,0.852,2.209,0.852c0.336,0,0.66-0.044,0.973-0.132c0.312-0.087,0.592-0.216,0.84-0.384
					c0.248-0.168,0.444-0.38,0.588-0.636c0.144-0.256,0.217-0.552,0.217-0.888c0-0.32-0.057-0.608-0.168-0.865
					c-0.112-0.255-0.3-0.495-0.565-0.72c-0.264-0.224-0.608-0.44-1.032-0.648c-0.424-0.208-0.949-0.424-1.573-0.648l-1.056-0.384
					c-0.465-0.16-0.932-0.376-1.404-0.648c-0.473-0.272-0.901-0.6-1.285-0.985c-0.384-0.384-0.701-0.836-0.949-1.357
					c-0.248-0.52-0.372-1.108-0.372-1.765c0-0.672,0.132-1.301,0.396-1.885c0.264-0.584,0.64-1.096,1.129-1.537
					c0.489-0.44,1.073-0.784,1.753-1.032c0.68-0.248,1.437-0.372,2.269-0.372c0.865,0,1.613,0.116,2.246,0.348
					c0.632,0.232,1.168,0.528,1.609,0.888c0.44,0.36,0.796,0.757,1.068,1.188c0.272,0.433,0.472,0.84,0.601,1.225l-2.857,1.2
					c-0.161-0.48-0.453-0.913-0.877-1.297s-1.005-0.576-1.741-0.576c-0.705,0-1.289,0.164-1.753,0.492
					c-0.465,0.329-0.696,0.757-0.696,1.285c0,0.512,0.224,0.949,0.672,1.309c0.448,0.36,1.16,0.708,2.137,1.044l1.08,0.36
					c0.689,0.241,1.317,0.517,1.885,0.828c0.568,0.312,1.056,0.684,1.465,1.117c0.408,0.433,0.72,0.925,0.936,1.477
					c0.216,0.552,0.324,1.189,0.324,1.909c0,0.897-0.18,1.669-0.54,2.317c-0.36,0.648-0.821,1.181-1.38,1.597
					c-0.561,0.416-1.193,0.728-1.897,0.936C581.47,880.172,580.782,880.275,580.109,880.275z"/>
			</g>
			<g>
				<path style="fill:#FFFFFF;" d="M655.431,876.625l8.716-10.854h-8.332v-3.073h12.103v3.266l-8.621,10.854h8.716v3.073h-12.582
					V876.625z"/>
				<path style="fill:#FFFFFF;" d="M670.702,862.699h3.242v17.193h-3.242V862.699z"/>
				<path style="fill:#FFFFFF;" d="M677.402,879.891v-17.193h6.051c0.817,0,1.581,0.132,2.293,0.396
					c0.712,0.264,1.333,0.636,1.861,1.117s0.944,1.053,1.249,1.717c0.304,0.665,0.456,1.397,0.456,2.198
					c0,0.816-0.152,1.557-0.456,2.221c-0.305,0.664-0.721,1.236-1.249,1.717s-1.149,0.852-1.861,1.117
					c-0.713,0.264-1.477,0.396-2.293,0.396h-2.809v6.315H677.402z M683.501,870.503c0.848,0,1.489-0.241,1.921-0.721
					c0.433-0.48,0.648-1.032,0.648-1.656c0-0.304-0.052-0.601-0.156-0.889c-0.105-0.288-0.264-0.54-0.48-0.756
					c-0.216-0.217-0.484-0.388-0.805-0.516c-0.32-0.129-0.696-0.193-1.128-0.193h-2.857v4.731H683.501z"/>
			</g>
		</g>
		<g style="opacity:0.61;">
			<path style="fill:#606060;" d="M609.144,863.785h19.739v4.881h-19.739V863.785z M609.144,872.201h19.739v4.884h-19.739V872.201z"
				/>
		</g>
	</g>
	<g style="opacity:0.61;">
		<path style="fill:#606060;" d="M297,963.076h3.498c2.75,0,4.603,1.768,4.603,4.297s-1.854,4.296-4.603,4.296H297V963.076z
			 M300.449,970.883c2.283,0,3.756-1.448,3.756-3.51s-1.473-3.511-3.756-3.511h-2.541v7.021H300.449z"/>
		<path style="fill:#606060;" d="M315.251,967.373c0-2.504,1.915-4.37,4.517-4.37c2.577,0,4.505,1.853,4.505,4.37
			c0,2.516-1.927,4.369-4.505,4.369C317.166,971.742,315.251,969.877,315.251,967.373z M323.365,967.373
			c0-2.05-1.534-3.56-3.596-3.56c-2.075,0-3.621,1.51-3.621,3.56c0,2.049,1.546,3.559,3.621,3.559
			C321.831,970.932,323.365,969.422,323.365,967.373z"/>
		<path style="fill:#606060;" d="M346.724,963.076l-2.897,8.593h-0.957l-2.516-7.328l-2.529,7.328h-0.945l-2.897-8.593h0.933
			l2.479,7.389l2.566-7.389h0.847l2.529,7.426l2.516-7.426H346.724z"/>
		<path style="fill:#606060;" d="M364.435,963.076v8.593h-0.749l-5.524-6.972v6.972h-0.908v-8.593h0.749l5.536,6.973v-6.973H364.435
			z"/>
		<path style="fill:#606060;" d="M376.108,963.076h0.908v7.807h4.812v0.786h-5.72V963.076z"/>
		<path style="fill:#606060;" d="M391.279,967.373c0-2.504,1.915-4.37,4.517-4.37c2.577,0,4.505,1.853,4.505,4.37
			c0,2.516-1.927,4.369-4.505,4.369C393.194,971.742,391.279,969.877,391.279,967.373z M399.392,967.373
			c0-2.05-1.534-3.56-3.596-3.56c-2.075,0-3.621,1.51-3.621,3.56c0,2.049,1.546,3.559,3.621,3.559
			C397.858,970.932,399.392,969.422,399.392,967.373z"/>
		<path style="fill:#606060;" d="M416.478,969.374h-4.787l-1.031,2.295h-0.945l3.928-8.593h0.896l3.928,8.593h-0.957
			L416.478,969.374z M416.147,968.637l-2.062-4.615l-2.062,4.615H416.147z"/>
		<path style="fill:#606060;" d="M428.765,963.076h3.498c2.75,0,4.603,1.768,4.603,4.297s-1.854,4.296-4.603,4.296h-3.498V963.076z
			 M432.214,970.883c2.283,0,3.756-1.448,3.756-3.51s-1.473-3.511-3.756-3.511h-2.541v7.021H432.214z"/>
		<path style="fill:#606060;" d="M465.256,969.374h-4.787l-1.031,2.295h-0.945l3.928-8.593h0.896l3.928,8.593h-0.957
			L465.256,969.374z M464.925,968.637l-2.062-4.615l-2.062,4.615H464.925z"/>
		<path style="fill:#606060;" d="M477.543,963.076h0.908v7.807h4.812v0.786h-5.72V963.076z"/>
		<path style="fill:#606060;" d="M493.647,963.076h0.908v7.807h4.812v0.786h-5.72V963.076z"/>
		<path style="fill:#606060;" d="M522.749,963.862v3.376h4.443v0.786h-4.443v3.646h-0.909v-8.593h5.891v0.786H522.749z"/>
		<path style="fill:#606060;" d="M538.485,963.076h0.909v8.593h-0.909V963.076z"/>
		<path style="fill:#606060;" d="M551.067,963.076h0.909v7.807h4.811v0.786h-5.72V963.076z"/>
		<path style="fill:#606060;" d="M573.246,970.883v0.786h-6.076v-8.593h5.891v0.786h-4.983v3.056h4.443v0.774h-4.443v3.191H573.246z
			"/>
		<path style="fill:#606060;" d="M597.255,963.862v3.376h4.443v0.786h-4.443v3.646h-0.909v-8.593h5.891v0.786H597.255z"/>
		<path style="fill:#606060;" d="M612.119,967.373c0-2.504,1.915-4.37,4.517-4.37c2.577,0,4.505,1.853,4.505,4.37
			c0,2.516-1.927,4.369-4.505,4.369C614.034,971.742,612.119,969.877,612.119,967.373z M620.232,967.373
			c0-2.05-1.534-3.56-3.596-3.56c-2.075,0-3.622,1.51-3.622,3.56c0,2.049,1.547,3.559,3.622,3.559
			C618.698,970.932,620.232,969.422,620.232,967.373z"/>
		<path style="fill:#606060;" d="M637.919,971.669l-1.963-2.762c-0.222,0.024-0.442,0.037-0.688,0.037h-2.307v2.725h-0.909v-8.593
			h3.216c2.185,0,3.511,1.105,3.511,2.946c0,1.351-0.712,2.295-1.964,2.7l2.099,2.946H637.919z M637.871,966.022
			c0-1.375-0.909-2.161-2.627-2.161h-2.283v4.309h2.283C636.962,968.17,637.871,967.373,637.871,966.022z"/>
		<path style="fill:#606060;" d="M658.724,963.076v8.593h-0.871v-6.874l-3.376,5.782h-0.429l-3.376-5.745v6.837h-0.872v-8.593h0.749
			l3.732,6.371l3.695-6.371H658.724z"/>
		<path style="fill:#606060;" d="M675.787,969.374h-4.788l-1.031,2.295h-0.946l3.928-8.593h0.896l3.928,8.593h-0.957
			L675.787,969.374z M675.455,968.637l-2.062-4.615l-2.062,4.615H675.455z"/>
		<path style="fill:#606060;" d="M689.312,963.862h-3.02v-0.786h6.948v0.786h-3.02v7.807h-0.908V963.862z"/>
		<path style="fill:#606060;" d="M702.605,970.626l0.356-0.7c0.614,0.601,1.706,1.043,2.835,1.043c1.608,0,2.308-0.675,2.308-1.522
			c0-2.357-5.29-0.908-5.29-4.087c0-1.265,0.982-2.357,3.167-2.357c0.97,0,1.976,0.282,2.664,0.761l-0.307,0.724
			c-0.737-0.479-1.596-0.712-2.357-0.712c-1.571,0-2.271,0.7-2.271,1.559c0,2.357,5.29,0.933,5.29,4.063
			c0,1.265-1.006,2.344-3.204,2.344C704.508,971.742,703.243,971.288,702.605,970.626z"/>
	</g>
</g>
<g>
</g>
<g>
	<g>
		<path style="fill-rule:evenodd;clip-rule:evenodd;fill:#0E3110;" d="M362.06,306.063c0,0-0.656,8.201-0.656,43.629
			c0,121.046,57.079,222.739,133.184,269.321c113.501-74.465,144.009-210.274,144.009-363.468c0,0-20.995-7.545-73.809-7.545
			C466.704,248,362.06,306.063,362.06,306.063z"/>
		<path style="fill-rule:evenodd;clip-rule:evenodd;fill:#66A51E;" d="M564.787,255.873c-88.26,0-174.893,43.959-192.764,53.327
			c-0.178,5.799-0.392,20.159-0.392,40.492c0,133.949,78.56,221.426,122.785,245.702c12.914-9.724,28.036-21.805,43.378-38.155
			c-5.414-11.063-12.151-21.397-20.001-30.822l-7.203,12.532l16.35,11.195l-19.588,2.993l1.44,19.764l-14.551-13.449l-14.553,13.449
			l1.442-19.764l-19.588-2.993l16.35-11.195l-9.873-17.18l18.946,5.802l7.277-18.431l7.276,18.431l13.686-4.191
			c-22.588-25.757-53.734-44.228-89.181-51.26c2.079-0.792,4.236-1.586,6.473-2.373c49.055,7.84,90.54,37.445,113.583,78.247
			c2.347-2.743,4.692-5.595,7.025-8.561c-24.957-38.565-67-65.67-115.838-71.313c2.442-0.808,4.959-1.602,7.55-2.373
			c47.737,3.619,89.552,27.679,116.167,63.159c1.587-2.231,3.166-4.517,4.734-6.866c-27.113-33.155-67.971-55.254-114.227-58.178
			c3.048-0.815,6.178-1.589,9.38-2.309c44.055,1.557,83.775,20.234,111.855,49.434c30.755-51.033,55.614-127.902,55.614-248.872
			C618.264,259.838,597.945,255.873,564.787,255.873z"/>
		<path style="fill-rule:evenodd;clip-rule:evenodd;fill:#FFFF1A;" d="M456.535,422.845l136.289-165.932
			c-1.247-0.098-2.525-0.189-3.832-0.275L438.165,409.395l46.052-142.953c-1.575,0.388-3.14,0.785-4.696,1.187l-62.022,135.205
			l-5.338-112.392c-2.72,1.134-5.338,2.252-7.844,3.344l-8.335,109.693l-24.348-56.346c0,0.843-0.001,1.693-0.001,2.558
			c0,24.811,2.701,48.022,7.376,69.536l15.393,15.687l-2.184-35.457l13.97,32.368l9.376-30.487l1.533,32.895l19.2-24.948
			l-9.905,31.171l29.373-19.599l-24.867,30.25l37.98-10.36l-29.311,18.391l2.761,0.46l181.555-113.942
			c0.213-1.878,0.419-3.769,0.619-5.675L456.535,422.845z"/>
		<path style="fill-rule:evenodd;clip-rule:evenodd;fill:#FFB301;" d="M504.865,458.273c42.274,0,72.44,10.985,86.167,17.226
			c5.68-12.947,10.94-27.156,15.61-42.8l-151.705,16.795l-15.372,9.645L462.75,463C475.824,460.165,490.084,458.273,504.865,458.273
			z"/>
		<path style="fill-rule:evenodd;clip-rule:evenodd;fill:none;stroke:#F0047F;stroke-width:0.2338;stroke-miterlimit:10;" d="
			M395.081,488.453c0,0,50.737-30.179,109.784-30.179c59.048,0,94.476,21.432,94.476,21.432"/>
		<polygon style="fill-rule:evenodd;clip-rule:evenodd;fill:#FFFFFF;" points="483.903,550.927 468.456,548.567 481.349,539.738 
			473.564,526.19 488.504,530.766 494.243,516.23 499.981,530.766 514.921,526.19 507.135,539.738 520.029,548.567 504.582,550.927 
			505.718,566.511 494.243,555.906 482.766,566.511 		"/>
		<polygon style="fill-rule:evenodd;clip-rule:evenodd;fill:#0E3110;" points="415.513,329.703 422.79,348.134 441.736,342.332 
			431.862,359.512 448.213,370.706 428.625,373.7 430.065,393.462 415.513,380.013 400.96,393.462 402.402,373.7 382.814,370.706 
			399.164,359.512 389.29,342.332 408.236,348.134 		"/>
		<polygon style="fill-rule:evenodd;clip-rule:evenodd;fill:#FFFFFF;" points="405.173,371.489 389.727,369.129 402.62,360.301 
			394.834,346.753 409.774,351.328 415.513,336.793 421.252,351.328 436.192,346.753 428.406,360.301 441.3,369.129 
			425.853,371.489 426.989,387.074 415.513,376.468 404.037,387.074 		"/>
		<polygon style="fill-rule:evenodd;clip-rule:evenodd;fill:#0E3110;" points="494.243,273.062 501.519,291.493 520.465,285.691 
			510.591,302.871 526.942,314.065 507.354,317.058 508.794,336.821 494.243,323.372 479.69,336.821 481.131,317.058 
			461.543,314.065 477.893,302.871 468.02,285.691 486.966,291.493 		"/>
		<polygon style="fill-rule:evenodd;clip-rule:evenodd;fill:#FFFFFF;" points="483.903,314.848 468.456,312.488 481.349,303.659 
			473.564,290.111 488.504,294.687 494.243,280.152 499.981,294.687 514.921,290.111 507.136,303.659 520.029,312.488 
			504.582,314.848 505.718,330.433 494.243,319.827 482.766,330.433 		"/>
		<polygon style="fill-rule:evenodd;clip-rule:evenodd;fill:#0E3110;" points="584.782,290.776 592.058,309.207 611.004,303.405 
			601.131,320.584 617.48,331.78 597.892,334.772 599.334,354.536 584.782,341.086 570.228,354.536 571.67,334.772 552.082,331.78 
			568.432,320.584 558.559,303.405 577.504,309.207 		"/>
		<polygon style="fill-rule:evenodd;clip-rule:evenodd;fill:#FFFFFF;" points="574.442,332.562 558.994,330.202 571.888,321.374 
			564.102,307.826 579.043,312.401 584.782,297.866 590.521,312.401 605.46,307.826 597.675,321.373 610.567,330.202 
			595.12,332.562 596.257,348.147 584.782,337.541 573.305,348.147 		"/>
		<polygon style="fill-rule:evenodd;clip-rule:evenodd;fill:#0E3110;" points="537.395,400.081 542.43,415.599 558.754,415.599 
			545.559,425.205 550.595,440.706 537.406,431.118 524.196,440.706 529.233,425.184 516.039,415.599 532.35,415.607 		"/>
		<polygon style="fill-rule:evenodd;clip-rule:evenodd;fill:#FFFFFF;" points="532.294,424.189 524.059,418.206 534.242,418.211 
			537.394,408.511 540.538,418.203 550.754,418.203 542.499,424.212 545.641,433.886 537.408,427.901 529.142,433.899 		"/>
		<path style="fill-rule:evenodd;clip-rule:evenodd;fill:#FFFFFF;" d="M401.215,485.116c11.018-5.69,35.906-17.232,66.61-23.155
			l-23.12-3.852l35.797-22.46l-44.46,12.127l29.123-35.429l-35.397,23.619l11.502-36.194l-22.553,29.305l-1.794-38.49l-11.03,35.866
			l-16.187-37.506l2.532,41.114l-13.94-14.184C383.545,441.355,391.572,464.489,401.215,485.116z"/>
	</g>
	<g>
		<g>
			<path style="fill:#0E3110;" d="M397.214,719.024h4.628l13.002,32.418h-4.804l-3.13-8.174h-15.074l-3.129,8.174h-4.628
				L397.214,719.024z M399.373,723.39l-6.126,16.07H405.5L399.373,723.39z"/>
			<path style="fill:#0E3110;" d="M443.225,738.02c0,9.103-4.364,13.98-11.944,13.98c-7.582,0-11.944-4.877-11.944-13.98v-18.996
				h4.407v18.392c0,6.224,1.851,10.497,7.537,10.497c5.685,0,7.537-4.273,7.537-10.497v-18.392h4.408V738.02z"/>
			<path style="fill:#0E3110;" d="M465.083,723.9c-2.248-0.928-3.482-1.346-5.774-1.346c-2.469,0-5.377,0.928-5.377,4.319
				c0,6.224,13.223,4.784,13.223,15.467c0,6.921-5.069,9.661-11.239,9.661c-2.16,0-4.275-0.65-6.303-1.348l0.441-4.319
				c1.499,0.65,4.143,1.579,6.392,1.579c2.512,0,6.038-1.487,6.038-5.295c0-7.246-13.222-5.248-13.222-15.327
				c0-5.76,4.319-8.825,9.873-8.825c2.027,0,4.451,0.37,6.567,1.161L465.083,723.9z"/>
			<path style="fill:#0E3110;" d="M479.273,723.111h-9.564v-4.087h23.536v4.087h-9.564v28.331h-4.408V723.111z"/>
			<path style="fill:#0E3110;" d="M497.385,719.024h7.538c6.082,0,11.944,1.021,11.944,8.777c0,3.948-2.777,6.735-6.347,7.385v0.094
				c1.366,0.557,2.027,1.254,2.997,3.251l5.818,12.912h-5.025l-4.716-11.24c-1.366-3.157-2.82-3.157-5.156-3.157h-2.645v14.397
				h-4.408V719.024z M501.794,732.957h3.746c4.187,0,6.655-1.951,6.655-5.062c0-2.927-2.115-4.784-6.17-4.784h-4.231V732.957z"/>
			<path style="fill:#0E3110;" d="M534.319,719.024h4.629l13.002,32.418h-4.804l-3.129-8.174h-15.074l-3.13,8.174h-4.627
				L534.319,719.024z M536.479,723.39l-6.127,16.07h12.254L536.479,723.39z"/>
			<path style="fill:#0E3110;" d="M556.353,719.024h4.407v28.331h12.871v4.087h-17.278V719.024z"/>
			<path style="fill:#0E3110;" d="M578.433,719.024h4.408v32.418h-4.408V719.024z"/>
			<path style="fill:#0E3110;" d="M600.425,719.024h4.629l13.002,32.418h-4.804l-3.129-8.174h-15.074l-3.13,8.174h-4.627
				L600.425,719.024z M602.585,723.39l-6.127,16.07h12.253L602.585,723.39z"/>
		</g>
		<g>
			<path style="fill:#0E3110;" d="M390.635,636.089h15.737c12.701,0,24.941,2.024,24.941,17.393c0,7.824-5.798,13.345-13.252,14.633
				v0.185c2.853,1.105,4.233,2.485,6.258,6.442l12.149,25.584h-10.492l-9.847-22.272c-2.853-6.257-5.89-6.257-10.768-6.257h-5.522
				v28.528h-9.203V636.089z M399.837,663.698h7.823c8.742,0,13.896-3.866,13.896-10.031c0-5.798-4.417-9.479-12.884-9.479h-8.835
				V663.698z"/>
			<path style="fill:#0E3110;" d="M446.087,636.089h9.202v64.237h-9.202V636.089z"/>
			<path style="fill:#0E3110;" d="M523.052,636.089h9.204v28.253l27.425-28.253h12.24l-30.188,30.369l32.58,33.868h-13.436
				l-28.622-31.473v31.473h-9.204V636.089z"/>
			<path style="fill:#0E3110;" d="M578.864,636.089h39.105l-3.971,8.099h-25.932v18.775h22.95v8.097h-22.95v21.167h26.782v8.099
				h-35.984V636.089z"/>
			<path style="fill:#0E3110;" d="M637.058,644.188h-18.984l3.971-8.099h44.185v8.099h-19.97v56.138h-9.201V644.188z"/>
			<path style="fill:#0E3110;" d="M376.802,692.117c-2.931,0.774-6.287,1.215-9.073,1.215c-13.344,0-24.204-10.031-24.204-25.125
				c0-14.447,9.847-25.123,24.663-25.123c2.879,0,5.688,0.455,8.365,1.355l4.306-7.225c-4.211-1.616-8.632-2.23-13.13-2.23
				c-19.603,0-33.959,13.16-33.959,32.947c0,20.431,13.527,33.499,33.867,33.499c3.56,0,9.087-0.249,13.797-1.977L376.802,692.117z"
				/>
			<path style="fill:#0E3110;" d="M509.797,692.117c-2.931,0.774-6.287,1.215-9.074,1.215c-13.344,0-24.204-10.031-24.204-25.125
				c0-14.447,9.847-25.123,24.663-25.123c2.879,0,5.688,0.455,8.366,1.355l4.305-7.225c-4.211-1.616-8.631-2.23-13.13-2.23
				c-19.603,0-33.959,13.16-33.959,32.947c0,20.431,13.527,33.499,33.867,33.499c3.56,0,9.088-0.249,13.798-1.977L509.797,692.117z"
				/>
		</g>
	</g>
</g>
</svg>
